<svg width="8" height="6" viewBox="0 0 8 6" fill="none" xmlns="http://www.w3.org/2000/svg">
<path d="M4.03074 5.99447C4.03909 5.99114 4.05385 5.9767 4.06413 5.96281C4.0744 5.94893 4.39159 5.47517 4.76978 4.90977C5.55183 3.73953 6.50019 2.32103 7.38819 0.994172C7.88002 0.258263 7.99752 0.0788673 7.99945 0.060539C8.00138 0.0410999 7.99881 0.034435 7.98275 0.0188837C7.97041 0.00677985 7.95381 0 7.93652 0L4.00056 0L0.063756 0C0.0470123 0 0.0309405 0.00658296 0.0190077 0.0183283C-0.0143805 0.0505417 -0.0105276 0.0616498 0.0857844 0.205499C0.133298 0.276035 0.401689 0.677037 0.682279 1.09692C2.12889 3.26077 3.93507 5.96114 3.94277 5.97114C3.96139 5.99725 4.00056 6.00724 4.03074 5.99447Z" fill="white"/>
</svg>
