<svg width="21" height="22" viewBox="0 0 21 22" fill="none" xmlns="http://www.w3.org/2000/svg">
<path d="M16 19.5C16.1333 19.5 16.25 19.45 16.35 19.35C16.45 19.25 16.5 19.1333 16.5 19C16.5 18.8667 16.45 18.75 16.35 18.65C16.25 18.55 16.1333 18.5 16 18.5C15.8667 18.5 15.75 18.55 15.65 18.65C15.55 18.75 15.5 18.8667 15.5 19C15.5 19.1333 15.55 19.25 15.65 19.35C15.75 19.45 15.8667 19.5 16 19.5ZM15.5 17.5H16.5V13.5H15.5V17.5ZM2 19.5C1.45 19.5 0.979167 19.3042 0.5875 18.9125C0.195833 18.5208 0 18.05 0 17.5V6.5C0 5.95 0.195833 5.47917 0.5875 5.0875C0.979167 4.69583 1.45 4.5 2 4.5H6V2.5C6 1.95 6.19583 1.47917 6.5875 1.0875C6.97917 0.695833 7.45 0.5 8 0.5H12C12.55 0.5 13.0208 0.695833 13.4125 1.0875C13.8042 1.47917 14 1.95 14 2.5V4.5H18C18.55 4.5 19.0208 4.69583 19.4125 5.0875C19.8042 5.47917 20 5.95 20 6.5V10.775C19.7 10.5583 19.3833 10.3708 19.05 10.2125C18.7167 10.0542 18.3667 9.91667 18 9.8V6.5H2V17.5H9.075C9.125 17.85 9.2 18.1917 9.3 18.525C9.4 18.8583 9.525 19.1833 9.675 19.5H2ZM8 4.5H12V2.5H8V4.5ZM16 21.5C14.6167 21.5 13.4375 21.0125 12.4625 20.0375C11.4875 19.0625 11 17.8833 11 16.5C11 15.1167 11.4875 13.9375 12.4625 12.9625C13.4375 11.9875 14.6167 11.5 16 11.5C17.3833 11.5 18.5625 11.9875 19.5375 12.9625C20.5125 13.9375 21 15.1167 21 16.5C21 17.8833 20.5125 19.0625 19.5375 20.0375C18.5625 21.0125 17.3833 21.5 16 21.5Z" fill="#595959"/>
</svg>
