<svg width="11" height="11" viewBox="0 0 11 11" fill="none" xmlns="http://www.w3.org/2000/svg">
<path d="M1.61111 9.38889H2.40278L7.83333 3.95833L7.04167 3.16667L1.61111 8.59722V9.38889ZM0.5 10.5V8.13889L7.83333 0.819444C7.94444 0.717593 8.06713 0.638889 8.20139 0.583333C8.33565 0.527778 8.47685 0.5 8.625 0.5C8.77315 0.5 8.91667 0.527778 9.05556 0.583333C9.19445 0.638889 9.31482 0.722222 9.41667 0.833333L10.1806 1.61111C10.2917 1.71296 10.3727 1.83333 10.4236 1.97222C10.4745 2.11111 10.5 2.25 10.5 2.38889C10.5 2.53704 10.4745 2.67824 10.4236 2.8125C10.3727 2.94676 10.2917 3.06944 10.1806 3.18056L2.86111 10.5H0.5ZM7.43056 3.56944L7.04167 3.16667L7.83333 3.95833L7.43056 3.56944Z" fill="#031320"/>
</svg>
