<svg width="91" height="20" viewBox="0 0 91 20" fill="none" xmlns="http://www.w3.org/2000/svg">
<path d="M0.517045 19V1.54545H12.0739V4.58807H4.20739V8.74716H11.3068V11.7898H4.20739V19H0.517045ZM14.4879 19V5.90909H18.1186V19H14.4879ZM16.3118 4.22159C15.772 4.22159 15.3089 4.04261 14.9226 3.68466C14.5419 3.32102 14.3516 2.88636 14.3516 2.38068C14.3516 1.88068 14.5419 1.4517 14.9226 1.09375C15.3089 0.730113 15.772 0.548295 16.3118 0.548295C16.8516 0.548295 17.3118 0.730113 17.6925 1.09375C18.0788 1.4517 18.272 1.88068 18.272 2.38068C18.272 2.88636 18.0788 3.32102 17.6925 3.68466C17.3118 4.04261 16.8516 4.22159 16.3118 4.22159ZM24.6577 11.4318V19H21.027V5.90909H24.4872V8.21875H24.6406C24.9304 7.45739 25.4162 6.85511 26.098 6.41193C26.7798 5.96307 27.6065 5.73864 28.5781 5.73864C29.4872 5.73864 30.2798 5.9375 30.956 6.33523C31.6321 6.73295 32.1577 7.30114 32.5327 8.03977C32.9077 8.77273 33.0952 9.64773 33.0952 10.6648V19H29.4645V11.3125C29.4702 10.5114 29.2656 9.88636 28.8509 9.4375C28.4361 8.98295 27.8651 8.75568 27.1378 8.75568C26.6491 8.75568 26.2173 8.8608 25.8423 9.07102C25.473 9.28125 25.1832 9.58807 24.973 9.99148C24.7685 10.3892 24.6634 10.8693 24.6577 11.4318ZM39.6896 19.2472C38.8544 19.2472 38.1101 19.1023 37.4567 18.8125C36.8033 18.517 36.2862 18.0824 35.9055 17.5085C35.5305 16.929 35.343 16.2074 35.343 15.3438C35.343 14.6165 35.4766 14.0057 35.7436 13.5114C36.0107 13.017 36.3743 12.6193 36.8345 12.3182C37.2947 12.017 37.8175 11.7898 38.4027 11.6364C38.9936 11.483 39.6129 11.375 40.2607 11.3125C41.022 11.233 41.6357 11.1591 42.1016 11.0909C42.5675 11.017 42.9055 10.9091 43.1158 10.767C43.326 10.625 43.4311 10.4148 43.4311 10.1364V10.0852C43.4311 9.54545 43.2607 9.12784 42.9197 8.83239C42.5845 8.53693 42.1072 8.3892 41.4879 8.3892C40.8345 8.3892 40.3146 8.53409 39.9283 8.82386C39.5419 9.10795 39.2862 9.46591 39.1612 9.89773L35.8033 9.625C35.9737 8.82955 36.3089 8.14205 36.8089 7.5625C37.3089 6.97727 37.9538 6.52841 38.7436 6.21591C39.5391 5.89773 40.4595 5.73864 41.505 5.73864C42.2322 5.73864 42.9283 5.82386 43.593 5.99432C44.2635 6.16477 44.8572 6.42898 45.3743 6.78693C45.897 7.14489 46.3089 7.60511 46.6101 8.16761C46.9112 8.72443 47.0618 9.39205 47.0618 10.1705V19H43.6186V17.1847H43.5163C43.3061 17.5938 43.0249 17.9545 42.6726 18.267C42.3203 18.5739 41.897 18.8153 41.4027 18.9915C40.9084 19.1619 40.3374 19.2472 39.6896 19.2472ZM40.7294 16.7415C41.2635 16.7415 41.7351 16.6364 42.1442 16.4261C42.5533 16.2102 42.8743 15.9205 43.1072 15.5568C43.3402 15.1932 43.4567 14.7812 43.4567 14.321V12.9318C43.343 13.0057 43.1868 13.0739 42.9879 13.1364C42.7947 13.1932 42.576 13.2472 42.3317 13.2983C42.0874 13.3437 41.843 13.3864 41.5987 13.4261C41.3544 13.4602 41.1328 13.4915 40.9339 13.5199C40.5078 13.5824 40.1357 13.6818 39.8175 13.8182C39.4993 13.9545 39.2521 14.1392 39.076 14.3722C38.8999 14.5994 38.8118 14.8835 38.8118 15.2244C38.8118 15.7188 38.9908 16.0966 39.3487 16.358C39.7124 16.6136 40.1726 16.7415 40.7294 16.7415ZM53.5092 11.4318V19H49.8786V5.90909H53.3388V8.21875H53.4922C53.782 7.45739 54.2678 6.85511 54.9496 6.41193C55.6314 5.96307 56.4581 5.73864 57.4297 5.73864C58.3388 5.73864 59.1314 5.9375 59.8075 6.33523C60.4837 6.73295 61.0092 7.30114 61.3842 8.03977C61.7592 8.77273 61.9467 9.64773 61.9467 10.6648V19H58.3161V11.3125C58.3217 10.5114 58.1172 9.88636 57.7024 9.4375C57.2876 8.98295 56.7166 8.75568 55.9893 8.75568C55.5007 8.75568 55.0689 8.8608 54.6939 9.07102C54.3246 9.28125 54.0348 9.58807 53.8246 9.99148C53.62 10.3892 53.5149 10.8693 53.5092 11.4318ZM70.723 19.2557C69.3821 19.2557 68.2287 18.9716 67.2628 18.4034C66.3026 17.8295 65.5639 17.0341 65.0469 16.017C64.5355 15 64.2798 13.8295 64.2798 12.5057C64.2798 11.1648 64.5384 9.98864 65.0554 8.97727C65.5781 7.96023 66.3196 7.16761 67.2798 6.59943C68.2401 6.02557 69.3821 5.73864 70.706 5.73864C71.848 5.73864 72.848 5.94602 73.706 6.36079C74.5639 6.77557 75.2429 7.35795 75.7429 8.10795C76.2429 8.85795 76.5185 9.73864 76.5696 10.75H73.1435C73.0469 10.0966 72.7912 9.57102 72.3764 9.1733C71.9673 8.76989 71.4304 8.56818 70.7656 8.56818C70.2031 8.56818 69.7116 8.72159 69.2912 9.02841C68.8764 9.32955 68.5526 9.76989 68.3196 10.3494C68.0866 10.929 67.9702 11.6307 67.9702 12.4545C67.9702 13.2898 68.0838 14 68.3111 14.5852C68.544 15.1705 68.8707 15.6165 69.2912 15.9233C69.7116 16.2301 70.2031 16.3835 70.7656 16.3835C71.1804 16.3835 71.5526 16.2983 71.8821 16.1278C72.2173 15.9574 72.4929 15.7102 72.7088 15.3864C72.9304 15.0568 73.0753 14.6619 73.1435 14.2017H76.5696C76.5128 15.2017 76.2401 16.0824 75.7514 16.8438C75.2685 17.5994 74.6009 18.1903 73.7486 18.6165C72.8963 19.0426 71.8878 19.2557 70.723 19.2557ZM84.8601 19.2557C83.5135 19.2557 82.3544 18.983 81.3828 18.4375C80.4169 17.8864 79.6726 17.108 79.1499 16.1023C78.6271 15.0909 78.3658 13.8949 78.3658 12.5142C78.3658 11.1676 78.6271 9.9858 79.1499 8.96875C79.6726 7.9517 80.4084 7.15909 81.3572 6.59091C82.3118 6.02273 83.4311 5.73864 84.7152 5.73864C85.5788 5.73864 86.3828 5.87784 87.1271 6.15625C87.8771 6.42898 88.5305 6.84091 89.0874 7.39205C89.6499 7.94318 90.0874 8.63636 90.3999 9.47159C90.7124 10.3011 90.8686 11.2727 90.8686 12.3864V13.3835H79.8146V11.1335H87.451C87.451 10.6108 87.3374 10.1477 87.1101 9.74432C86.8828 9.34091 86.5675 9.02557 86.1641 8.7983C85.7663 8.56534 85.3033 8.44886 84.7749 8.44886C84.2237 8.44886 83.7351 8.5767 83.3089 8.83239C82.8885 9.08239 82.5589 9.42045 82.3203 9.84659C82.0817 10.267 81.9595 10.7358 81.9538 11.2528V13.392C81.9538 14.0398 82.0732 14.5994 82.3118 15.071C82.5561 15.5426 82.8999 15.9062 83.343 16.1619C83.7862 16.4176 84.3118 16.5455 84.9197 16.5455C85.3232 16.5455 85.6925 16.4886 86.0277 16.375C86.3629 16.2614 86.6499 16.0909 86.8885 15.8636C87.1271 15.6364 87.3089 15.358 87.4339 15.0284L90.7919 15.25C90.6214 16.0568 90.272 16.7614 89.7436 17.3636C89.2209 17.9602 88.5447 18.4261 87.7152 18.7614C86.8913 19.0909 85.9396 19.2557 84.8601 19.2557Z" fill="white"/>
</svg>
